<svg width="14" height="19" viewBox="0 0 14 19" fill="none" xmlns="http://www.w3.org/2000/svg">
<path d="M11.451 0.810577H0.246582V4.77355H6.62337C7.48802 3.30365 10.2021 1.51911 11.451 0.810577Z" fill="#F07D00"/>
<path fill-rule="evenodd" clip-rule="evenodd" d="M13.4927 0V5.51948L13.1438 5.62607C12.3899 5.85645 10.6645 6.8557 10.0881 8.92565L9.98765 9.28632H4.38736L4.52065 8.6865C4.9827 6.60727 7.28686 2.10198 12.8417 0.220505L13.4927 0ZM9.65485 12.2275L9.44119 18.5092H3.66523L3.64473 18.0378C3.59655 16.9297 3.59688 14.2601 4.01977 12.5988L4.11428 12.2275H9.65485ZM12.9998 0.687344C12.8324 0.74403 12.6682 0.803181 12.5069 0.864647C7.90306 2.61957 5.77225 6.26156 5.13479 8.30053C5.0794 8.4777 5.03529 8.64276 5.00181 8.79342H9.61326C10.2473 6.51652 12.1352 5.41889 12.9998 5.1547V0.687344ZM9.14491 12.7204H4.49743C4.09392 14.3056 4.08912 16.9115 4.13716 18.0163H8.96478L9.14491 12.7204Z" fill="white"/>
<path d="M13.0001 5.1547V0.687347C7.63924 2.50311 5.43439 6.84797 5.00206 8.79343H9.61352C10.2476 6.51652 12.1354 5.4189 13.0001 5.1547Z" fill="#E4051F"/>
<path d="M8.96504 18.0163L9.14517 12.7204H4.49768C4.09418 14.3056 4.08938 16.9115 4.13741 18.0163H8.96504Z" fill="#E4051F"/>
<path fill-rule="evenodd" clip-rule="evenodd" d="M10.2891 14.1186C10.6294 14.1186 10.9053 13.8428 10.9053 13.5025C10.9053 13.1622 10.6294 12.8864 10.2891 12.8864C9.94887 12.8864 9.67303 13.1622 9.67303 13.5025C9.67303 13.8428 9.94887 14.1186 10.2891 14.1186ZM10.2891 14.2418C10.6975 14.2418 11.0285 13.9108 11.0285 13.5025C11.0285 13.0942 10.6975 12.7632 10.2891 12.7632C9.88082 12.7632 9.5498 13.0942 9.5498 13.5025C9.5498 13.9108 9.88082 14.2418 10.2891 14.2418Z" fill="#007A4E"/>
<path d="M10.3112 13.6014H10.1371V13.9338H9.98096V13.0712H10.297C10.4007 13.0712 10.4807 13.0935 10.5371 13.1381C10.5935 13.1828 10.6216 13.2473 10.6216 13.3319C10.6216 13.3895 10.607 13.4379 10.5778 13.477C10.549 13.5157 10.5087 13.5455 10.4568 13.5665L10.6587 13.9261V13.9338H10.4914L10.3112 13.6014ZM10.1371 13.4812H10.2976C10.3503 13.4812 10.3914 13.4685 10.421 13.4432C10.4507 13.4176 10.4655 13.3826 10.4655 13.3384C10.4655 13.2922 10.4517 13.2564 10.4241 13.2312C10.397 13.2059 10.3562 13.1928 10.3019 13.1921H10.1371V13.4812Z" fill="#007A4E"/>
<path d="M0 9.20093H1.80552V9.90898H0.991268V10.44H1.80552V11.1127H0.991268V11.7499H1.80552V12.3871H0V9.20093Z" fill="#007A4E"/>
<path d="M4.03564 9.20093H5.84117V9.90898H5.02691V10.44H5.84117V11.1127H5.02691V11.7499H5.84117V12.3871H4.03564V9.20093Z" fill="#007A4E"/>
<path d="M8.63818 9.20093H10.4437V9.90898H9.62945V10.44H10.4437V11.1127H9.62945V11.7499H10.4437V12.3871H8.63818V9.20093Z" fill="#007A4E"/>
<path d="M10.7271 12.4226V9.23633H11.6829V9.51955C11.7655 9.37794 12.0541 9.06915 12.5326 9.13013C13.0001 9.18972 13.1344 9.80277 13.1344 10.1214L13.1344 12.4226H12.1786L12.1431 10.1214C12.1431 10.0506 12.1077 9.94438 11.8953 9.94438C11.7254 9.94438 11.6829 10.0624 11.6829 10.1214V12.4226H10.7271Z" fill="#007A4E"/>
<path d="M6.97418 9.20093H5.98291L6.44314 12.3871H7.89464L8.42568 9.20093H7.75303L7.3282 11.5021L6.97418 9.20093Z" fill="#007A4E"/>
<path d="M2.15967 12.4225V9.20093H3.11553V11.7499H3.82358V12.4225H2.15967Z" fill="#007A4E"/>
</svg>
