<?xml version="1.0" encoding="UTF-8"?><svg width="32" height="32" viewBox="0 0 32 32" fill="none" xmlns="http://www.w3.org/2000/svg">

<svg width="32" height="32" viewBox="0 0 32 32" xmlns="http://www.w3.org/2000/svg">  <circle cx="16" cy="16" r="14" fill="#2A3248"/>

  <path d="M16 4L8 8V10H24V8L16 4ZM10 12V18H14V12H18V18H22V12H24V20H8V12H10Z" fill="currentColor"/>  <path d="M16 8L8 12V14H24V12L16 8ZM10 16V22H14V16H18V22H22V16H24V24H8V16H10Z" fill="white"/>

</svg><path d="M12.0681 13.3344C12.2036 13.4464 12.336 13.5629 12.4753 13.6689C12.6185 13.7779 12.7737 13.8693 12.9137 13.9824C13.0822 14.1184 13.2079 13.8413 13.3004 13.7161C13.4375 13.5305 13.5717 13.3423 13.7102 13.1579C13.9191 12.8798 14.1322 12.6054 14.3403 12.3266C14.417 12.2238 14.4836 12.1124 14.5562 12.006C14.6036 11.938 14.6557 11.8744 14.7124 11.8152C14.8298 11.5648 15.0193 11.3873 15.2245 11.2252C15.2535 11.2022 15.2848 11.1774 15.3187 11.1674C15.6422 11.0719 15.9564 10.9444 16.3026 10.9464C17.0887 10.951 17.8748 10.9338 18.6609 10.9322C19.1261 10.9312 19.5914 10.9474 20.0567 10.9481C20.5256 10.9488 20.9945 10.9381 21.4634 10.9362C21.6377 10.9354 21.8127 10.9382 21.9862 10.9544C22.0387 10.9594 22.1041 11.0037 22.1312 11.0511C22.1473 11.0794 22.1105 11.1576 22.0802 11.1987C21.8437 11.5194 21.5983 11.8328 21.3649 12.1561C21.1543 12.4478 20.956 12.7495 20.751 13.0459C20.6194 13.2362 20.4892 13.4279 20.3518 13.6135C19.9456 14.1621 19.5314 14.7039 19.1296 15.2562C18.8551 15.6334 18.6002 16.0268 18.3292 16.4069C17.9192 16.9818 17.4817 17.5341 17.0708 18.1086C16.9607 18.2624 16.8579 18.4224 16.756 18.5827C16.6567 18.739 16.463 18.664 16.4645 18.4847C16.4747 17.3038 16.4881 16.1225 16.4836 14.9416C16.4825 14.6418 16.4942 14.3371 16.4877 14.0387C16.4832 13.8363 16.4755 13.6339 16.469 13.4315C16.4558 13.4269 16.4426 13.4222 16.4294 13.4176C16.065 13.7769 15.7808 14.2508 15.4775 14.6697C15.2552 14.9769 15.034 15.285 14.8128 15.5931C14.6604 15.8054 14.5198 16.0288 14.3539 16.2281C14.2005 16.4122 14.0204 16.5655 13.8231 16.7033C13.6488 16.8249 13.4684 16.8958 13.2753 16.893C13.0832 16.8902 12.8844 16.8524 12.702 16.7868C12.4241 16.6868 12.204 16.4764 11.9762 16.2828C11.7575 16.0969 11.5242 15.931 11.2998 15.7526C10.9589 15.4817 10.6212 15.2061 10.2801 14.9355C9.92364 14.6526 9.56312 14.3801 9.21676 14.0826C9.10119 13.9834 8.98387 13.8855 8.8761 13.777C8.58376 13.4826 8.49712 12.9079 8.66901 12.512C8.80466 12.1995 8.97974 11.9323 9.28385 11.7851C9.5118 11.6747 8.42778 8.78896 8.31356 8.42678C8.23273 8.17044 7.85292 7.52319 8.16666 7.34742C8.60681 7.10084 9.10009 7.01341 9.55477 6.80933C10.1699 6.53328 11.7251 5.56846 12.1222 6.60092C12.2354 6.89503 12.3279 7.19829 12.4283 7.49798C12.6827 8.2571 12.9429 9.0142 13.1948 9.77424C13.3067 10.1119 13.3871 10.6977 13.0095 10.908C12.8395 11.0027 12.6718 11.1021 12.4992 11.1909C12.2894 11.2989 12.5378 11.652 12.5966 11.8161C12.6941 12.0876 12.7701 12.3673 12.8681 12.6385C12.9363 12.8275 12.9128 12.9971 12.7843 13.1355C12.6625 13.2666 12.5089 13.3319 12.3281 13.2991C12.2491 13.2848 12.1678 13.2849 12.0876 13.2785C12.0811 13.2971 12.0746 13.3158 12.0681 13.3344ZM9.36291 7.54722C9.3639 7.56187 9.36488 7.57653 9.36588 7.59121C9.55844 7.70601 9.77872 7.76928 9.9833 7.85666C10.6946 8.16054 11.4539 8.19163 11.7221 9.10227C11.7646 9.2465 11.7915 9.39621 11.8372 9.53913C11.9389 9.85715 12.0768 10.2008 12.2454 10.4846C12.3147 10.6013 12.5485 10.3776 12.5863 10.3133C12.6865 10.143 12.6423 10.1182 12.5887 9.90255C12.4961 9.53038 12.3544 9.18433 12.2423 8.81736C12.1782 8.60759 12.1353 8.3904 12.0712 8.18063C12.0141 7.99364 11.9282 7.81613 11.8785 7.62734C11.8239 7.42026 11.7479 7.18654 11.6245 7.01355C11.4341 6.74672 11.1853 6.8176 10.9038 6.91362C10.5453 7.03591 10.1911 7.17294 9.83572 7.30567C9.67451 7.36587 9.52416 7.48091 9.36291 7.54722Z" fill="white"/>
<path d="M25.3521 16.9632C25.3521 18.3212 25.3518 19.6792 25.3524 21.0371C25.3525 21.31 25.4923 21.854 25.1159 21.8541C22.4216 21.8543 19.7273 21.8546 17.033 21.8549C16.9528 21.8549 16.8728 21.8554 16.7927 21.8554C16.653 21.8552 16.6068 21.8186 16.6003 21.6659C16.5868 21.3483 16.5903 21.0253 16.5902 20.7074C16.5901 20.5033 16.6059 20.2869 16.8413 20.287C17.5112 20.2875 18.1811 20.2924 18.8511 20.2913C20.027 20.2893 21.203 20.2869 22.3788 20.2776C22.6009 20.2758 22.8137 20.2208 22.9519 20.0022C23.1351 19.7125 23.0353 19.2264 22.7402 19.0793C22.6141 19.0165 22.4571 19.0049 22.314 19.0045C21.2582 19.0014 20.2024 19.0064 19.1466 19.0101C18.8737 19.0111 18.6009 19.0163 18.328 19.0196C18.3208 19.0197 18.3134 19.02 18.3062 19.0195C18.0615 19.0038 17.9938 18.8624 18.1532 18.6542C18.3467 18.4015 18.5337 18.1431 18.7234 17.8871C19.0819 17.4034 19.4307 16.9134 19.7819 16.4242C19.9809 16.1469 20.1848 15.8737 20.3841 15.5966C20.5833 15.3197 20.7778 15.0388 20.9773 14.7621C21.1593 14.5095 21.3467 14.2614 21.5288 14.0089C21.8144 13.613 22.0953 13.2145 22.3856 12.8224C22.7196 12.3712 23.0531 11.9196 23.3877 11.4688C23.5005 11.3167 23.6084 11.159 23.7337 11.0196C23.7789 10.9693 23.8685 10.9431 23.9378 10.9433C24.4818 10.9448 25.0026 11.1757 25.2342 11.7282C25.3945 12.1105 25.3554 12.5068 25.3562 12.9016C25.3587 14.2555 25.3572 15.6093 25.3572 16.9632C25.3554 16.9632 25.3537 16.9632 25.3521 16.9632Z" fill="white"/>
<path d="M23.2008 7.71795C23.2247 8.19209 23.122 8.58555 22.9522 8.96992C22.8488 9.20409 22.7453 9.43383 22.5762 9.6197C22.3402 9.87922 22.0894 10.115 21.7755 10.2723C21.4642 10.4283 21.1425 10.5257 20.8032 10.5541C20.2202 10.6028 19.6257 10.3427 19.1525 9.99962C18.6442 9.6311 18.3508 8.96648 18.1797 8.35876C18.0601 7.934 17.6602 8.09893 17.3089 8.08205C17.2582 8.07961 17.1889 8.04931 17.1659 8.00775C17.1478 7.97516 17.1758 7.89609 17.2043 7.85397C17.4391 7.50731 17.8015 6.82794 18.1801 6.6524C18.3125 6.59103 18.4918 6.62651 18.6417 6.63119C19.1144 6.64599 19.5898 6.62974 20.0626 6.62808C20.6624 6.62597 21.2622 6.62346 21.8621 6.62098C22.182 6.61967 22.9713 6.47183 23.0794 6.88336C23.1554 7.17256 23.2411 7.45845 23.2008 7.71795Z" fill="white"/>
</g>
<defs>
<filter id="filter0_d_3778_14581" x="0" y="0" width="34" height="34" filterUnits="userSpaceOnUse" color-interpolation-filters="sRGB">
<feFlood flood-opacity="0" result="BackgroundImageFix"/>
<feColorMatrix in="SourceAlpha" type="matrix" values="0 0 0 0 0 0 0 0 0 0 0 0 0 0 0 0 0 0 127 0" result="hardAlpha"/>
<feOffset dy="4"/>
<feGaussianBlur stdDeviation="2"/>
<feComposite in2="hardAlpha" operator="out"/>
<feColorMatrix type="matrix" values="0 0 0 0 0 0 0 0 0 0 0 0 0 0 0 0 0 0 0.4 0"/>
<feBlend mode="normal" in2="BackgroundImageFix" result="effect1_dropShadow_3778_14581"/>
<feBlend mode="normal" in="SourceGraphic" in2="effect1_dropShadow_3778_14581" result="shape"/>
</filter>
</defs>
</svg>
